<svg width="128" height="127" viewBox="0 0 128 127" fill="none" xmlns="http://www.w3.org/2000/svg">
<path fill-rule="evenodd" clip-rule="evenodd" d="M43.6815 0H64.3364C77.8428 0 85.3782 0.0336647 86.1183 0.0841617C86.7406 0.134659 87.876 0.252485 88.6413 0.345063C89.4066 0.437641 90.7101 0.648045 91.5427 0.807952C92.3753 0.96786 93.6452 1.25401 94.3601 1.43917C95.0749 1.62432 96.3784 2.01988 97.2615 2.30603C98.1445 2.6006 99.3135 3.0214 99.8686 3.24023C100.424 3.45905 101.5 3.93877 102.265 4.29225C103.031 4.64573 104.183 5.23486 104.83 5.59675C105.478 5.95023 106.521 6.56461 107.143 6.96017C107.766 7.34732 108.674 7.95328 109.162 8.28993C109.649 8.63499 110.558 9.3167 111.18 9.81325C111.802 10.3098 112.786 11.143 113.367 11.6564C113.947 12.1782 114.914 13.1124 115.511 13.7268C116.117 14.3496 117.042 15.3679 117.572 15.9907C118.093 16.6135 118.892 17.615 119.346 18.221C119.792 18.827 120.481 19.8032 120.868 20.4092C121.264 21.0152 121.768 21.8231 122.004 22.2187C122.231 22.6142 122.71 23.4811 123.063 24.1544C123.408 24.8277 123.938 25.905 124.224 26.553C124.51 27.2011 124.93 28.2278 125.157 28.8254C125.384 29.4229 125.738 30.4497 125.948 31.0977C126.158 31.7458 126.495 32.9577 126.696 33.7909C126.907 34.6241 127.159 35.8192 127.277 36.442C127.386 37.0648 127.546 38.0748 127.622 38.6723C127.689 39.2698 127.798 40.162 127.849 40.6501C127.916 41.2981 127.95 52.9377 128 127H118.917V85.8618C118.917 59.4771 118.884 44.1596 118.833 43.1329C118.783 42.2576 118.69 40.9867 118.614 40.3135C118.547 39.6402 118.396 38.5797 118.278 37.9569C118.16 37.3341 117.916 36.2316 117.731 35.5162C117.546 34.8009 117.218 33.6983 117.008 33.0755C116.798 32.4528 116.419 31.4428 116.167 30.8453C115.906 30.2477 115.469 29.2799 115.175 28.6991C114.889 28.1184 114.435 27.2684 114.166 26.8055C113.896 26.3426 113.308 25.4168 112.854 24.7435C112.399 24.0702 111.626 23.0098 111.121 22.387C110.625 21.7642 109.574 20.5944 108.783 19.7864C108.001 18.9869 106.899 17.9433 106.344 17.4804C105.789 17.0175 104.999 16.3779 104.578 16.0749C104.158 15.7635 103.426 15.2501 102.938 14.9219C102.45 14.6021 101.694 14.1307 101.256 13.8698C100.819 13.6174 100.171 13.2555 99.8265 13.0703C99.4817 12.8767 98.6071 12.4643 97.8922 12.1361C97.1774 11.8163 96.0757 11.3618 95.4533 11.1262C94.831 10.8905 93.6368 10.5118 92.8042 10.2761C91.9716 10.0405 90.7269 9.73751 90.0289 9.60285C89.3393 9.45977 88.3133 9.29145 87.7582 9.21571C87.2032 9.14838 86.3706 9.04738 85.908 8.99689C85.2941 8.92114 78.2886 8.88748 60.0221 8.86223C46.2549 8.85381 34.9771 8.81173 34.9687 8.77807C34.9603 8.7444 36.9114 6.75818 39.3167 4.35958L43.6815 0ZM26.1719 17.674H54.7154C73.5622 17.674 83.6878 17.7076 84.5372 17.7581C85.2436 17.8086 86.4042 17.9433 87.1275 18.0611C87.8423 18.1789 88.6749 18.3304 88.9777 18.3977C89.272 18.4651 90.0541 18.6755 90.7017 18.8606C91.3493 19.0542 92.3501 19.3909 92.9304 19.6265C93.5022 19.8537 94.5619 20.3419 95.2851 20.7038C96 21.0657 96.9251 21.5791 97.3456 21.84C97.7577 22.1009 98.4221 22.5469 98.8173 22.8331C99.2042 23.1108 99.9443 23.6915 100.457 24.1207C100.962 24.55 101.837 25.3663 102.392 25.9386C102.955 26.5025 103.737 27.3946 104.141 27.8996C104.545 28.413 105.158 29.2462 105.495 29.7512C105.831 30.2645 106.344 31.0977 106.622 31.6027C106.908 32.1161 107.353 32.9998 107.614 33.5805C107.875 34.1612 108.312 35.2974 108.573 36.1054C108.842 36.9133 109.178 38.1505 109.321 38.8406C109.464 39.5392 109.641 40.5744 109.717 41.1551C109.843 42.0977 109.868 43.6294 109.893 55.9675C109.91 63.5337 109.91 82.6131 109.834 127H100.752V85.239C100.752 56.8512 100.718 43.1834 100.659 42.5858C100.617 42.0977 100.516 41.3991 100.449 41.0288C100.382 40.6585 100.23 40.0189 100.121 39.5981C100.003 39.1857 99.7593 38.4451 99.5658 37.9569C99.3808 37.4688 99.0276 36.6945 98.7837 36.2316C98.5482 35.7687 98.1698 35.1038 97.9427 34.7588C97.7156 34.4137 97.3708 33.9172 97.169 33.6647C96.9756 33.4122 96.5382 32.8904 96.1934 32.5201C95.857 32.1414 95.2936 31.5775 94.9487 31.2661C94.5955 30.9547 93.9732 30.4413 93.5611 30.1299C93.1406 29.8185 92.4426 29.3556 92.0053 29.0947C91.5595 28.8422 90.9035 28.4887 90.5335 28.3204C90.1635 28.1437 89.4402 27.8575 88.9356 27.6724C88.4226 27.4956 87.7246 27.2684 87.3798 27.1758C87.0265 27.0832 86.2949 26.9317 84.7306 26.6372L51.1327 26.5951C32.6476 26.5698 17.5348 26.5278 17.5348 26.5025C17.5348 26.4689 19.4775 24.4742 21.8491 22.0588L26.1719 17.674ZM8.69593 35.3479H46.0447C70.3579 35.3563 83.5869 35.3816 83.9737 35.4405C84.2933 35.4826 84.8652 35.6004 85.2352 35.693C85.6053 35.7856 86.2108 36.0044 86.5808 36.1811C86.9509 36.3494 87.5396 36.6777 87.8844 36.9049C88.2292 37.1237 88.8599 37.6539 89.272 38.0748C89.7346 38.5376 90.2055 39.1268 90.4746 39.556C90.7185 39.9516 91.0297 40.5575 91.1727 40.9026C91.3156 41.2476 91.5175 41.8199 91.795 42.7962L91.8371 127H82.7543L82.7122 82.8909L78.4231 87.1915C76.0599 89.5565 74.1172 91.5343 74.092 91.5763C74.0668 91.6268 68.4573 91.6437 58.9961 91.6268C44.0347 91.6016 43.9338 91.6016 43.2273 91.4249C42.8321 91.3323 42.2097 91.1303 41.8397 90.9956C41.4696 90.8525 40.8305 90.5327 40.41 90.2887C39.8465 89.9604 39.4176 89.607 38.728 88.9168C38.0636 88.2604 37.6852 87.7891 37.3824 87.2757C37.1469 86.8885 36.8442 86.2405 36.6928 85.8449C36.5498 85.4578 36.3648 84.8434 36.2807 84.4983C36.1377 83.9008 36.1293 82.7899 36.0788 44.2691H27.2484L27.2904 84.9612L27.4754 85.887C27.5763 86.4004 27.7782 87.1915 27.9127 87.6544C28.0473 88.1173 28.3501 88.9505 28.5855 89.506C28.821 90.0614 29.2079 90.8694 29.4518 91.2902C29.6957 91.7194 30.133 92.4011 30.4189 92.8051C30.7049 93.2175 31.2936 93.9413 31.7225 94.4294C32.1514 94.9091 32.883 95.6245 33.3456 96.0117C33.8081 96.4072 34.6407 97.0216 35.1958 97.3919C35.7509 97.7622 36.6171 98.2672 37.1301 98.5113C37.6347 98.7553 38.4168 99.092 38.8541 99.2519C39.2915 99.4202 40.1072 99.6643 40.6623 99.7989C41.2173 99.942 41.9322 100.094 42.2602 100.144C42.5798 100.195 43.2442 100.279 43.7319 100.321C44.2786 100.371 48.5677 100.405 54.892 100.405C63.5038 100.405 65.1774 100.422 65.1522 100.523C65.1438 100.582 63.2263 102.568 56.6413 109.242H49.9133C44.4804 109.242 42.975 109.217 42.092 109.116C41.4865 109.048 40.5782 108.914 40.0736 108.821C39.5606 108.72 38.6439 108.518 38.03 108.358C37.4244 108.198 36.4573 107.895 35.8854 107.693C35.3219 107.483 34.4221 107.121 33.8922 106.885C33.3624 106.65 32.5635 106.263 32.1261 106.027C31.6888 105.791 30.9319 105.345 30.4442 105.042C29.9564 104.731 29.1911 104.209 28.7369 103.872C28.2912 103.544 27.4754 102.879 26.9288 102.4C26.3905 101.92 25.6757 101.247 25.3561 100.901C25.0281 100.548 24.4983 99.9504 24.1703 99.5549C23.8423 99.1677 23.3209 98.5113 23.0265 98.0905C22.7238 97.6781 22.2276 96.929 21.9164 96.4325C21.6137 95.9359 21.1091 95.027 20.8063 94.4126C20.4951 93.7982 20.0494 92.7799 19.8055 92.1571C19.5616 91.5343 19.2673 90.6842 19.1411 90.2634C19.0234 89.851 18.83 89.1104 18.7122 88.6223C18.5945 88.1341 18.4263 87.2252 18.3338 86.6024C18.2413 85.9796 18.1235 84.6162 18.0731 83.5726C18.0058 82.2176 17.989 76.3936 18.0815 44.2691H9.08279L9.10802 64.8718C9.12484 83.9092 9.14166 85.5504 9.27622 86.6024C9.36032 87.2252 9.5201 88.2688 9.63784 88.9168C9.75558 89.5649 9.98265 90.6253 10.1424 91.2734C10.3022 91.9214 10.6386 93.0576 10.8909 93.7982C11.1348 94.5388 11.5721 95.6919 11.8581 96.3651C12.144 97.0384 12.5225 97.8716 12.6991 98.2167C12.8757 98.5618 13.3046 99.3613 13.6662 99.9841C14.0279 100.607 14.6922 101.667 15.1464 102.341C15.6005 103.014 16.2649 103.923 16.6097 104.361C16.9629 104.798 17.5685 105.522 17.9469 105.96C18.3338 106.397 19.1411 107.23 19.7382 107.811C20.3353 108.392 21.1595 109.149 21.5716 109.503C21.9921 109.848 22.6313 110.361 23.0013 110.647C23.3714 110.925 24.0021 111.388 24.4058 111.674C24.8179 111.96 25.6252 112.482 26.2139 112.836C26.811 113.189 27.7025 113.702 28.2155 113.963C28.7201 114.233 29.5779 114.645 30.1078 114.881C30.6376 115.125 31.6047 115.52 32.2523 115.764C32.8999 116.008 33.8838 116.345 34.4389 116.513C34.994 116.673 35.9947 116.943 36.6675 117.111C37.3403 117.271 38.4505 117.498 39.1485 117.616C39.8381 117.734 41.0744 117.885 41.8817 117.953C42.6891 118.02 44.1861 118.079 45.2037 118.087C46.2213 118.087 47.2137 118.121 47.7855 118.205L39.4008 126.689L38.6859 126.588C38.2907 126.529 37.3488 126.369 36.5834 126.234C35.8181 126.091 34.7417 125.872 34.1866 125.738C33.6315 125.603 32.513 125.292 31.7056 125.039C30.8983 124.787 29.7966 124.425 29.2668 124.231C28.7369 124.038 27.753 123.65 27.0802 123.364C26.4074 123.078 25.1795 122.497 24.3469 122.077C23.5143 121.656 22.3369 121.016 21.7398 120.654C21.1343 120.292 20.1924 119.686 19.6373 119.316C19.0823 118.946 18.1908 118.323 17.661 117.927C17.1311 117.523 16.2397 116.825 15.6846 116.362C15.1296 115.899 13.8597 114.704 12.8589 113.711C11.8665 112.709 10.7311 111.514 10.3527 111.051C9.96583 110.588 9.26781 109.696 8.79685 109.074C8.32589 108.451 7.63627 107.483 7.26623 106.927C6.88778 106.372 6.32431 105.463 5.99632 104.908C5.67674 104.352 5.19737 103.502 4.93666 103.014C4.68436 102.526 4.23863 101.617 3.95269 100.994C3.66675 100.371 3.24625 99.4034 3.0276 98.8479C2.80894 98.2924 2.41367 97.2152 2.16137 96.4493C1.90066 95.6834 1.50539 94.2864 1.26991 93.3353C1.03443 92.3843 0.731669 90.9451 0.588699 90.1372C0.454139 89.3292 0.27753 88.1173 0.19343 87.444C0.0588699 86.3162 0.0420499 84.7003 0 44.1428L8.69593 35.3479ZM45.2457 82.7309C74.2602 82.7646 82.7038 82.7562 82.7206 82.7309C82.7459 82.7057 82.7627 74.0455 82.7627 63.4832L82.7543 44.2691H45.2457V82.7309Z" fill="#569BBE"/>
</svg>
