<svg width="250" height="179" viewBox="0 0 250 179" fill="none" xmlns="http://www.w3.org/2000/svg">
<path d="M107.933 178.022C-55.6222 173.756 -20.0667 5.93333 136.378 0.244446L135.667 4.51111C10.5111 18.7333 11.2222 173.756 105.089 173.756C117.889 106.911 109.356 96.9556 59.5778 92.6889V89.8444H125L107.933 178.022Z" fill="url(#paint0_linear_524_7)"/>
<path d="M127.844 87H190.422V84.1555C149.178 82.7333 130.689 78.4667 144.911 4.51111C250.156 4.51111 226.689 170.911 114.333 173.756L113.622 178.022C284.289 165.222 294.244 0.244446 142.067 0.244446L127.844 87Z" fill="url(#paint1_linear_524_7)"/>
<defs>
<linearGradient id="paint0_linear_524_7" x1="124" y1="89" x2="127" y2="89.5" gradientUnits="userSpaceOnUse">
<stop stop-color="#31A5DE"/>
<stop offset="1" stop-color="#AAAAAA"/>
</linearGradient>
<linearGradient id="paint1_linear_524_7" x1="124" y1="89" x2="127" y2="89.5" gradientUnits="userSpaceOnUse">
<stop stop-color="#31A5DE"/>
<stop offset="1" stop-color="#AAAAAA"/>
</linearGradient>
</defs>
</svg>
