<svg width="63" height="49" viewBox="0 0 63 49" fill="none" xmlns="http://www.w3.org/2000/svg">
<path d="M0.445614 26.02C0.430503 13.4417 0.475836 3.09281 0.551392 3.04761C0.626947 2.98736 2.13806 2.94217 7.20028 2.9271L14.7558 12.9145C18.9114 18.4128 23.1878 24.0617 24.2758 25.4928C25.3487 26.9239 26.2856 28.0537 26.3461 28.0235C26.4216 27.9784 26.4669 22.3143 26.4669 2.94217H37.4981V48.887H30.8492L28.1594 45.3018C26.6785 43.3435 22.5532 37.8753 18.9869 33.1453C15.4358 28.4152 12.3834 24.4082 12.2021 24.2274C12.0207 24.0467 11.8394 23.9262 11.7789 23.9563C11.7034 24.0015 11.6581 29.6203 11.6581 48.887H0.475836L0.445614 26.02Z" fill="#4A4A4A"/>
<path d="M50.1461 6.85878C50.2972 6.85878 50.3425 6.09052 50.3425 3.54472V0.230666H54.7247V3.54472C54.7247 5.65367 54.7852 6.85878 54.8758 6.85878C54.9665 6.85878 56.4021 6.40686 58.0945 5.86456C59.7718 5.32226 61.1621 4.90047 61.1772 4.9306C61.1923 4.96073 61.4794 5.8495 61.827 6.9341C62.1745 8.0187 62.4314 8.96772 62.3861 9.04304C62.3558 9.11836 62.1594 9.23887 61.9629 9.28406C61.7665 9.32925 60.4065 9.76611 58.9558 10.2331C57.5052 10.7151 56.2812 11.1369 56.2358 11.167C56.1905 11.1972 56.3718 11.4985 56.6136 11.8449C56.8554 12.1914 57.2029 12.6584 57.3692 12.8994C57.5354 13.1254 58.2003 14.0292 58.8349 14.9029C59.4847 15.7766 60.0136 16.5449 60.0136 16.6051C60.0136 16.6804 59.8474 16.8311 59.6358 16.9516C59.4394 17.0721 58.6989 17.5993 57.9736 18.1115C57.2634 18.6387 56.6287 19.0605 56.5381 19.0605C56.4474 19.0605 56.0696 18.6237 55.6616 18.0814C55.2687 17.5541 54.5736 16.59 54.1203 15.9574C53.6669 15.3096 53.1532 14.6317 52.6847 14.0443L50.7203 16.6955C49.6323 18.1567 48.6954 19.3015 48.6047 19.2564C48.5141 19.1961 47.7283 18.6237 45.2047 16.8009L45.9149 15.7917C46.3078 15.2192 47.1994 13.984 47.8945 13.035C48.7709 11.8148 49.0883 11.2725 48.9523 11.2122C48.8465 11.152 47.8643 10.8206 46.7914 10.4741C45.7185 10.1276 44.3585 9.67572 43.7692 9.49496C43.1798 9.29913 42.6963 9.0581 42.6661 8.93759C42.6509 8.83215 42.8927 7.88312 43.2403 6.82865C43.5727 5.75911 43.8749 4.90047 43.9203 4.90047C43.9656 4.90047 45.3407 5.33732 46.9878 5.87962C48.6198 6.42192 50.0554 6.85878 50.1461 6.85878Z" fill="#31A5DE"/>
</svg>
