<svg width="50" height="128" viewBox="0 0 50 128" fill="none" xmlns="http://www.w3.org/2000/svg">
<path d="M4.32332e-05 15.3239C0.120946 10.9972 1.63223 7.39155 4.53389 4.50704C7.6169 1.44225 10.8813 0 15.4151 0C19.7676 0 23.2133 1.44225 26.2963 4.50704C29.3794 7.57183 30.8302 10.9972 30.8302 15.3239C30.8302 19.6507 29.3794 23.0761 26.2963 26.1408C23.2133 29.2056 19.949 30.6479 15.4151 30.6479C11.0626 30.6479 7.6169 29.2056 4.53389 26.1408C1.26952 22.8958 4.32332e-05 19.6507 4.32332e-05 15.3239Z" fill="#5680BE"/>
<path d="M4.32332e-05 72V46.2222C-4.7684e-07 40.8889 3.55555 35.5155 10.6667 35.5155H29.198C40.0807 35.5155 49.7778 35.5556 49.7778 35.5556C50.3218 36.2767 4.44445 70.2222 4.44445 70.2222C1.77779 72.8889 3.55556 74.6667 3.55556 75.5556C1.77778 75.5556 4.31803e-05 74.6667 4.32332e-05 72Z" fill="#5680BE"/>
<path d="M1.77781 90.6667L29.3333 70.2222C31.1111 67.5556 30.2222 65.7778 30.2222 64.8889C32 64.8889 33.7778 66.6667 33.7778 68.4444V96.8889C33.7778 98.6667 32.8889 99.5556 32 100.444L4.44445 122.667C1.77779 125.333 3.55556 127.111 3.55555 128C1.77777 128 -4.23858e-07 126.222 -3.8147e-06 124.444L2.96699e-06 94.2222C2.96699e-06 92.4444 0.888892 91.5556 1.77781 90.6667Z" fill="#5680BE"/>
<path d="M8.88888 77.3333L7.99999 76.4444C7.99999 76.4444 6.48425 74.6306 8 72.8889L21.3333 63.1111C23.0664 61.6778 24.8889 63.1111 24.8889 63.1111L25.7778 64C25.7778 64 27.1957 65.7853 25.7778 67.5555L12.4444 77.3333C10.6595 78.7515 8.88888 77.3333 8.88888 77.3333Z" fill="#5680BE"/>
</svg>
